<mxfile host="app.diagrams.net" modified="2021-05-11T09:32:00.104Z" agent="5.0 (Windows)" etag="nx4pchEePZjCgrph1JLp" version="14.6.10" type="github">
  <diagram id="C5RBs43oDa-KdzZeNtuy" name="Page-1">
    <mxGraphModel dx="2031" dy="1090" grid="0" gridSize="10" guides="1" tooltips="1" connect="1" arrows="1" fold="1" page="1" pageScale="1" pageWidth="827" pageHeight="1169" math="0" shadow="0">
      <root>
        <mxCell id="WIyWlLk6GJQsqaUBKTNV-0" />
        <mxCell id="WIyWlLk6GJQsqaUBKTNV-1" parent="WIyWlLk6GJQsqaUBKTNV-0" />
        <mxCell id="w8_CbX6rNwMr6R3IFAu_-6" style="edgeStyle=orthogonalEdgeStyle;rounded=0;orthogonalLoop=1;jettySize=auto;html=1;exitX=0.5;exitY=1;exitDx=0;exitDy=0;entryX=0.5;entryY=0;entryDx=0;entryDy=0;" edge="1" parent="WIyWlLk6GJQsqaUBKTNV-1" source="WIyWlLk6GJQsqaUBKTNV-3" target="w8_CbX6rNwMr6R3IFAu_-0">
          <mxGeometry relative="1" as="geometry" />
        </mxCell>
        <mxCell id="WIyWlLk6GJQsqaUBKTNV-3" value="开始" style="rounded=1;whiteSpace=wrap;html=1;fontSize=12;glass=0;strokeWidth=1;shadow=0;" parent="WIyWlLk6GJQsqaUBKTNV-1" vertex="1">
          <mxGeometry x="160" y="80" width="120" height="40" as="geometry" />
        </mxCell>
        <mxCell id="w8_CbX6rNwMr6R3IFAu_-7" style="edgeStyle=orthogonalEdgeStyle;rounded=0;orthogonalLoop=1;jettySize=auto;html=1;exitX=0.5;exitY=1;exitDx=0;exitDy=0;entryX=0.5;entryY=0;entryDx=0;entryDy=0;" edge="1" parent="WIyWlLk6GJQsqaUBKTNV-1" source="w8_CbX6rNwMr6R3IFAu_-0" target="w8_CbX6rNwMr6R3IFAu_-1">
          <mxGeometry relative="1" as="geometry" />
        </mxCell>
        <mxCell id="w8_CbX6rNwMr6R3IFAu_-0" value="发送查询清零模式指令" style="rounded=1;whiteSpace=wrap;html=1;" vertex="1" parent="WIyWlLk6GJQsqaUBKTNV-1">
          <mxGeometry x="160" y="170" width="120" height="60" as="geometry" />
        </mxCell>
        <mxCell id="w8_CbX6rNwMr6R3IFAu_-3" value="" style="edgeStyle=orthogonalEdgeStyle;rounded=0;orthogonalLoop=1;jettySize=auto;html=1;" edge="1" parent="WIyWlLk6GJQsqaUBKTNV-1" source="w8_CbX6rNwMr6R3IFAu_-1" target="w8_CbX6rNwMr6R3IFAu_-2">
          <mxGeometry relative="1" as="geometry" />
        </mxCell>
        <mxCell id="w8_CbX6rNwMr6R3IFAu_-9" value="" style="edgeStyle=orthogonalEdgeStyle;rounded=0;orthogonalLoop=1;jettySize=auto;html=1;" edge="1" parent="WIyWlLk6GJQsqaUBKTNV-1" source="w8_CbX6rNwMr6R3IFAu_-1" target="w8_CbX6rNwMr6R3IFAu_-8">
          <mxGeometry relative="1" as="geometry" />
        </mxCell>
        <mxCell id="w8_CbX6rNwMr6R3IFAu_-1" value="是否为写入模式" style="rhombus;whiteSpace=wrap;html=1;" vertex="1" parent="WIyWlLk6GJQsqaUBKTNV-1">
          <mxGeometry x="180" y="280" width="80" height="80" as="geometry" />
        </mxCell>
        <mxCell id="w8_CbX6rNwMr6R3IFAu_-5" style="edgeStyle=orthogonalEdgeStyle;rounded=0;orthogonalLoop=1;jettySize=auto;html=1;exitX=0.5;exitY=1;exitDx=0;exitDy=0;entryX=0.5;entryY=0;entryDx=0;entryDy=0;" edge="1" parent="WIyWlLk6GJQsqaUBKTNV-1" source="w8_CbX6rNwMr6R3IFAu_-2" target="w8_CbX6rNwMr6R3IFAu_-4">
          <mxGeometry relative="1" as="geometry" />
        </mxCell>
        <mxCell id="w8_CbX6rNwMr6R3IFAu_-2" value="查询压电式雨量计计时" style="whiteSpace=wrap;html=1;" vertex="1" parent="WIyWlLk6GJQsqaUBKTNV-1">
          <mxGeometry x="160" y="420" width="120" height="60" as="geometry" />
        </mxCell>
        <mxCell id="w8_CbX6rNwMr6R3IFAu_-12" value="" style="edgeStyle=orthogonalEdgeStyle;rounded=0;orthogonalLoop=1;jettySize=auto;html=1;" edge="1" parent="WIyWlLk6GJQsqaUBKTNV-1" source="w8_CbX6rNwMr6R3IFAu_-4" target="w8_CbX6rNwMr6R3IFAu_-11">
          <mxGeometry relative="1" as="geometry" />
        </mxCell>
        <mxCell id="w8_CbX6rNwMr6R3IFAu_-13" style="edgeStyle=orthogonalEdgeStyle;rounded=0;orthogonalLoop=1;jettySize=auto;html=1;exitX=1;exitY=0.5;exitDx=0;exitDy=0;" edge="1" parent="WIyWlLk6GJQsqaUBKTNV-1" source="w8_CbX6rNwMr6R3IFAu_-4">
          <mxGeometry relative="1" as="geometry">
            <mxPoint x="380" y="200" as="targetPoint" />
            <Array as="points">
              <mxPoint x="460" y="585" />
              <mxPoint x="460" y="200" />
              <mxPoint x="390" y="200" />
            </Array>
          </mxGeometry>
        </mxCell>
        <mxCell id="w8_CbX6rNwMr6R3IFAu_-4" value="计时达到5分钟" style="rhombus;whiteSpace=wrap;html=1;" vertex="1" parent="WIyWlLk6GJQsqaUBKTNV-1">
          <mxGeometry x="180" y="545" width="80" height="80" as="geometry" />
        </mxCell>
        <mxCell id="w8_CbX6rNwMr6R3IFAu_-10" style="edgeStyle=orthogonalEdgeStyle;rounded=0;orthogonalLoop=1;jettySize=auto;html=1;exitX=0.5;exitY=0;exitDx=0;exitDy=0;entryX=1;entryY=0.5;entryDx=0;entryDy=0;" edge="1" parent="WIyWlLk6GJQsqaUBKTNV-1" source="w8_CbX6rNwMr6R3IFAu_-8" target="w8_CbX6rNwMr6R3IFAu_-0">
          <mxGeometry relative="1" as="geometry" />
        </mxCell>
        <mxCell id="w8_CbX6rNwMr6R3IFAu_-8" value="设置清零模式为写入清零" style="whiteSpace=wrap;html=1;" vertex="1" parent="WIyWlLk6GJQsqaUBKTNV-1">
          <mxGeometry x="320" y="290" width="120" height="60" as="geometry" />
        </mxCell>
        <mxCell id="w8_CbX6rNwMr6R3IFAu_-17" style="edgeStyle=orthogonalEdgeStyle;rounded=0;orthogonalLoop=1;jettySize=auto;html=1;exitX=0.5;exitY=1;exitDx=0;exitDy=0;" edge="1" parent="WIyWlLk6GJQsqaUBKTNV-1" source="w8_CbX6rNwMr6R3IFAu_-11" target="w8_CbX6rNwMr6R3IFAu_-14">
          <mxGeometry relative="1" as="geometry" />
        </mxCell>
        <mxCell id="w8_CbX6rNwMr6R3IFAu_-11" value="&lt;div&gt;清零计时&lt;/div&gt;&lt;div&gt;读取传感器雨量值&lt;/div&gt;&lt;div&gt;根据修正系数对雨量值修正&lt;br&gt;&lt;/div&gt;&lt;div&gt;读取雨量值成功计数&lt;br&gt;&lt;/div&gt;" style="whiteSpace=wrap;html=1;" vertex="1" parent="WIyWlLk6GJQsqaUBKTNV-1">
          <mxGeometry x="129" y="695" width="182" height="60" as="geometry" />
        </mxCell>
        <mxCell id="w8_CbX6rNwMr6R3IFAu_-16" value="" style="edgeStyle=orthogonalEdgeStyle;rounded=0;orthogonalLoop=1;jettySize=auto;html=1;" edge="1" parent="WIyWlLk6GJQsqaUBKTNV-1" source="w8_CbX6rNwMr6R3IFAu_-14" target="w8_CbX6rNwMr6R3IFAu_-15">
          <mxGeometry relative="1" as="geometry" />
        </mxCell>
        <mxCell id="w8_CbX6rNwMr6R3IFAu_-18" style="edgeStyle=orthogonalEdgeStyle;rounded=0;orthogonalLoop=1;jettySize=auto;html=1;exitX=1;exitY=0.5;exitDx=0;exitDy=0;entryX=0;entryY=0.5;entryDx=0;entryDy=0;" edge="1" parent="WIyWlLk6GJQsqaUBKTNV-1" source="w8_CbX6rNwMr6R3IFAu_-14" target="w8_CbX6rNwMr6R3IFAu_-0">
          <mxGeometry relative="1" as="geometry">
            <Array as="points">
              <mxPoint x="100" y="860" />
              <mxPoint x="100" y="200" />
            </Array>
          </mxGeometry>
        </mxCell>
        <mxCell id="w8_CbX6rNwMr6R3IFAu_-14" value="成功计数达到100次" style="rhombus;whiteSpace=wrap;html=1;" vertex="1" parent="WIyWlLk6GJQsqaUBKTNV-1">
          <mxGeometry x="180" y="820" width="80" height="80" as="geometry" />
        </mxCell>
        <mxCell id="w8_CbX6rNwMr6R3IFAu_-19" style="edgeStyle=orthogonalEdgeStyle;rounded=0;orthogonalLoop=1;jettySize=auto;html=1;exitX=0;exitY=0.5;exitDx=0;exitDy=0;" edge="1" parent="WIyWlLk6GJQsqaUBKTNV-1" source="w8_CbX6rNwMr6R3IFAu_-15">
          <mxGeometry relative="1" as="geometry">
            <mxPoint x="100" y="860" as="targetPoint" />
          </mxGeometry>
        </mxCell>
        <mxCell id="w8_CbX6rNwMr6R3IFAu_-15" value="写入数据清零雨量值" style="whiteSpace=wrap;html=1;" vertex="1" parent="WIyWlLk6GJQsqaUBKTNV-1">
          <mxGeometry x="160" y="990" width="120" height="60" as="geometry" />
        </mxCell>
        <mxCell id="w8_CbX6rNwMr6R3IFAu_-20" value="是" style="text;html=1;align=center;verticalAlign=middle;resizable=0;points=[];autosize=1;strokeColor=none;" vertex="1" parent="WIyWlLk6GJQsqaUBKTNV-1">
          <mxGeometry x="217" y="380" width="30" height="20" as="geometry" />
        </mxCell>
        <mxCell id="w8_CbX6rNwMr6R3IFAu_-21" value="否" style="text;html=1;align=center;verticalAlign=middle;resizable=0;points=[];autosize=1;strokeColor=none;" vertex="1" parent="WIyWlLk6GJQsqaUBKTNV-1">
          <mxGeometry x="275" y="330" width="30" height="20" as="geometry" />
        </mxCell>
        <mxCell id="w8_CbX6rNwMr6R3IFAu_-22" value="否" style="text;html=1;align=center;verticalAlign=middle;resizable=0;points=[];autosize=1;strokeColor=none;" vertex="1" parent="WIyWlLk6GJQsqaUBKTNV-1">
          <mxGeometry x="275" y="560" width="30" height="20" as="geometry" />
        </mxCell>
        <mxCell id="w8_CbX6rNwMr6R3IFAu_-23" value="是" style="text;html=1;align=center;verticalAlign=middle;resizable=0;points=[];autosize=1;strokeColor=none;" vertex="1" parent="WIyWlLk6GJQsqaUBKTNV-1">
          <mxGeometry x="225" y="630" width="30" height="20" as="geometry" />
        </mxCell>
        <mxCell id="w8_CbX6rNwMr6R3IFAu_-24" value="是" style="text;html=1;align=center;verticalAlign=middle;resizable=0;points=[];autosize=1;strokeColor=none;" vertex="1" parent="WIyWlLk6GJQsqaUBKTNV-1">
          <mxGeometry x="225" y="920" width="30" height="20" as="geometry" />
        </mxCell>
        <mxCell id="w8_CbX6rNwMr6R3IFAu_-25" value="否" style="text;html=1;align=center;verticalAlign=middle;resizable=0;points=[];autosize=1;strokeColor=none;" vertex="1" parent="WIyWlLk6GJQsqaUBKTNV-1">
          <mxGeometry x="145" y="870" width="30" height="20" as="geometry" />
        </mxCell>
      </root>
    </mxGraphModel>
  </diagram>
</mxfile>
